<svg xmlns="http://www.w3.org/2000/svg" fill-rule="evenodd" stroke-linejoin="round" stroke-miterlimit="2" class="h-12 lg:h-8 lg:mr-2 mb-5 lg:mb-0" clip-rule="evenodd" viewBox="0 0 36 41">
	<path fill="#0da7fe" d="M16.19 1.03a3.5 3.5 0 0 1 3.5 0l14.25 8.23a3.5 3.5 0 0 1 1.75 3.03v16.45a3.5 3.5 0 0 1-1.75 3.04L19.69 40a3.5 3.5 0 0 1-3.5 0 66030.71 66030.71 0 0 0-14.25-8.22A3.5 3.5 0 0 1 .2 28.73V12.3c0-1.25.67-2.4 1.75-3.03L16.2 1.03z"/>
	<path fill="#1a67fd" d="m0 30.77 9.44-10.25L17.97 41 0 30.77z"/>
	<path fill="#0da7fe" d="M9.44 20.52.12 10.2 0 30.77l9.44-10.25z"/>
	<path fill="#05bbff" d="M9.44 20.52 17.97.02.12 10.2l9.32 10.32z"/>
	<path fill="#00c9ff" d="M17.97.02 35.7 30.76 9.44 20.52"/>
	<path fill="#1a86fd" d="M17.97 41.05 35.7 30.77 9.44 20.52l8.53 20.52z"/>
	<path fill="#05bbff" d="M35.71 30.76V10.27L17.97.02 35.7 30.76z"/>
	<path fill="#1a67fd" fill-opacity=".5" d="m15.38 12.45 8.59 8.59-8.6 8.6-2.25-2.26 6.34-6.34-6.34-6.34 2.26-2.25z"/>
	<path fill="#d6ffff" d="m23.97 20.03-2.25-2.25-8.6 8.6 2.25 2.25 8.6-8.6z"/>
	<path fill="#d6ffff" d="m15.38 11.43-2.26 2.26 8.6 8.6 2.25-2.26-8.6-8.6z"/>
</svg>
