<svg width="145" height="60" viewBox="0 0 145 60" fill="none" xmlns="http://www.w3.org/2000/svg">
	<path d="M30.4665 9.54917L35.0206 1.28735H0V46.477H29.9603L25.4053 38.2152H9.00553V27.8227H24.7364L27.2674 19.5546H9.00553V9.54917H30.4665Z" fill="url(#paint0_linear_3380_5580)" />
	<path d="M30.4665 9.54917L35.0206 1.28735H0V46.477H29.9603L25.4053 38.2152H9.00553V27.8227H24.7364L27.2674 19.5546H9.00553V9.54917H30.4665Z" fill="url(#paint1_linear_3380_5580)" />
	<path d="M52.2318 7.38105V18.4612C50.6883 16.6171 48.6698 15.2364 45.9698 14.6546C45.0036 14.4566 44.0195 14.3582 43.0332 14.361C34.3835 14.361 27.8965 21.429 27.8965 30.8224C27.8965 31.4407 27.9276 32.0474 27.9845 32.647C28.7593 41.1183 34.952 47.2829 43.0332 47.2829C47.3264 47.2829 50.3324 45.5775 52.3946 43.0208V46.4769H60.6252V0L52.2318 7.38105ZM44.5829 39.4401C39.6456 39.4401 36.515 35.6032 36.515 30.8224C36.515 26.0416 39.6456 22.2039 44.5829 22.2039C49.3948 22.2039 52.657 25.8851 52.657 30.8224C52.657 35.7597 49.3948 39.4401 44.5829 39.4401Z" fill="url(#paint2_linear_3380_5580)" />
	<path d="M52.2318 7.38105V18.4612C50.6883 16.6171 48.6698 15.2364 45.9698 14.6546C45.0036 14.4566 44.0195 14.3582 43.0332 14.361C34.3835 14.361 27.8965 21.429 27.8965 30.8224C27.8965 31.4407 27.9276 32.0474 27.9845 32.647C28.7593 41.1183 34.952 47.2829 43.0332 47.2829C47.3264 47.2829 50.3324 45.5775 52.3946 43.0208V46.4769H60.6252V0L52.2318 7.38105ZM44.5829 39.4401C39.6456 39.4401 36.515 35.6032 36.515 30.8224C36.515 26.0416 39.6456 22.2039 44.5829 22.2039C49.3948 22.2039 52.657 25.8851 52.657 30.8224C52.657 35.7597 49.3948 39.4401 44.5829 39.4401Z" fill="url(#paint3_linear_3380_5580)" />
	<path d="M52.2318 7.38105V18.4612C50.6883 16.6171 48.6698 15.2364 45.9698 14.6546C45.0036 14.4566 44.0195 14.3582 43.0332 14.361C34.3835 14.361 27.8965 21.429 27.8965 30.8224C27.8965 31.4407 27.9276 32.0474 27.9845 32.647C28.7593 41.1183 34.952 47.2829 43.0332 47.2829C47.3264 47.2829 50.3324 45.5775 52.3946 43.0208V46.4769H60.6252V0L52.2318 7.38105ZM44.5829 39.4401C39.6456 39.4401 36.515 35.6032 36.515 30.8224C36.515 26.0416 39.6456 22.2039 44.5829 22.2039C49.3948 22.2039 52.657 25.8851 52.657 30.8224C52.657 35.7597 49.3948 39.4401 44.5829 39.4401Z" fill="url(#paint4_radial_3380_5580)" />
	<path d="M87.8819 15.199V18.6855C85.7193 16.005 82.5863 14.3611 78.2011 14.3611C70.5834 14.3611 63.8027 20.7173 63.8027 30.3411C63.8027 39.9276 70.5834 46.2831 78.2011 46.2831C78.5204 46.2831 78.8327 46.2768 79.1357 46.2519H80.1543C84.0223 46.0393 85.8166 44.4771 87.8227 42.0591V44.2521C87.8227 49.6769 84.1415 52.545 78.9106 52.545C77.1208 52.5496 75.3405 52.2842 73.6299 51.7577L67.8406 57.5501C71.1526 59.1691 75.2964 60.0001 79.2649 60.0001C89.5951 60.0001 96.1445 53.9631 96.1445 43.8954V15.199H87.8819ZM80.3279 38.5407C75.5222 38.5407 72.4532 34.8595 72.4532 30.3411C72.4532 25.7854 75.5222 22.1105 80.3279 22.1105C85.0083 22.1105 88.177 25.66 88.177 30.3411C88.1762 34.9841 85.0075 38.5407 80.3272 38.5407H80.3279Z" fill="url(#paint5_linear_3380_5580)" />
	<path d="M87.8819 15.199V18.6855C85.7193 16.005 82.5863 14.3611 78.2011 14.3611C70.5834 14.3611 63.8027 20.7173 63.8027 30.3411C63.8027 39.9276 70.5834 46.2831 78.2011 46.2831C78.5204 46.2831 78.8327 46.2768 79.1357 46.2519H80.1543C84.0223 46.0393 85.8166 44.4771 87.8227 42.0591V44.2521C87.8227 49.6769 84.1415 52.545 78.9106 52.545C77.1208 52.5496 75.3405 52.2842 73.6299 51.7577L67.8406 57.5501C71.1526 59.1691 75.2964 60.0001 79.2649 60.0001C89.5951 60.0001 96.1445 53.9631 96.1445 43.8954V15.199H87.8819ZM80.3279 38.5407C75.5222 38.5407 72.4532 34.8595 72.4532 30.3411C72.4532 25.7854 75.5222 22.1105 80.3279 22.1105C85.0083 22.1105 88.177 25.66 88.177 30.3411C88.1762 34.9841 85.0075 38.5407 80.3272 38.5407H80.3279Z" fill="url(#paint6_radial_3380_5580)" />
	<path d="M87.8819 15.199V18.6855C85.7193 16.005 82.5863 14.3611 78.2011 14.3611C70.5834 14.3611 63.8027 20.7173 63.8027 30.3411C63.8027 39.9276 70.5834 46.2831 78.2011 46.2831C78.5204 46.2831 78.8327 46.2768 79.1357 46.2519H80.1543C84.0223 46.0393 85.8166 44.4771 87.8227 42.0591V44.2521C87.8227 49.6769 84.1415 52.545 78.9106 52.545C77.1208 52.5496 75.3405 52.2842 73.6299 51.7577L67.8406 57.5501C71.1526 59.1691 75.2964 60.0001 79.2649 60.0001C89.5951 60.0001 96.1445 53.9631 96.1445 43.8954V15.199H87.8819ZM80.3279 38.5407C75.5222 38.5407 72.4532 34.8595 72.4532 30.3411C72.4532 25.7854 75.5222 22.1105 80.3279 22.1105C85.0083 22.1105 88.177 25.66 88.177 30.3411C88.1762 34.9841 85.0075 38.5407 80.3272 38.5407H80.3279Z" fill="url(#paint7_radial_3380_5580)" />
	<path d="M99.7391 22.6167V46.477H108.164V15.2053L99.7391 22.6167ZM108.163 13.133H99.7383V4.70923H108.163V13.133Z" fill="url(#paint8_linear_3380_5580)" />
	<path d="M127.716 14.3619C117.998 14.3619 110.836 21.3987 110.836 30.8232C110.836 40.2477 118 47.2838 127.716 47.2838C137.465 47.2838 144.664 40.2469 144.664 30.8232C144.664 21.3995 137.464 14.3611 127.717 14.3611L127.716 14.3619ZM127.716 39.4378C122.973 39.4378 119.417 35.8882 119.417 30.8201C119.417 25.7519 122.972 22.2039 127.717 22.2039C132.492 22.2039 136.041 25.7543 136.041 30.8224C136.041 35.8906 132.49 39.4401 127.717 39.4401L127.716 39.4378Z" fill="url(#paint9_linear_3380_5580)" />
	<defs>
		<linearGradient id="paint0_linear_3380_5580" x1="10.0234" y1="36.2912" x2="30.1513" y2="45.9939" gradientUnits="userSpaceOnUse">
			<stop stop-color="#82278D" />
			<stop offset="1" stop-color="#574BA7" />
		</linearGradient>
		<linearGradient id="paint1_linear_3380_5580" x1="1.07546" y1="28.0661" x2="34.8994" y2="1.40279" gradientUnits="userSpaceOnUse">
			<stop stop-color="#82278D" stop-opacity="0" />
			<stop offset="1" stop-color="#624293" />
		</linearGradient>
		<linearGradient id="paint2_linear_3380_5580" x1="27.0629" y1="31.147" x2="62.9254" y2="47.4306" gradientUnits="userSpaceOnUse">
			<stop stop-color="#663F9B" />
			<stop offset="1" stop-color="#1D82BB" />
		</linearGradient>
		<linearGradient id="paint3_linear_3380_5580" x1="59.6439" y1="-0.395852" x2="49.1691" y2="26.0692" gradientUnits="userSpaceOnUse">
			<stop stop-color="#3C6497" />
			<stop offset="1" stop-color="#455CA1" stop-opacity="0" />
		</linearGradient>
		<radialGradient id="paint4_radial_3380_5580" cx="0" cy="0" r="1" gradientUnits="userSpaceOnUse" gradientTransform="translate(64.0072 12.8583) rotate(171.87) scale(9.34311 22.5267)">
			<stop stop-color="#366A9C" />
			<stop offset="1" stop-color="#366A9D" stop-opacity="0" />
		</radialGradient>
		<linearGradient id="paint5_linear_3380_5580" x1="61.6258" y1="34.4868" x2="98.1704" y2="48.6567" gradientUnits="userSpaceOnUse">
			<stop stop-color="#2A76A8" />
			<stop offset="1" stop-color="#05A6A2" />
		</linearGradient>
		<radialGradient id="paint6_radial_3380_5580" cx="0" cy="0" r="1" gradientUnits="userSpaceOnUse" gradientTransform="translate(62.1223 64.7988) rotate(-24.1226) scale(39.4972 27.9894)">
			<stop stop-color="#0799D5" />
			<stop offset="1" stop-color="#03A9A4" stop-opacity="0" />
		</radialGradient>
		<radialGradient id="paint7_radial_3380_5580" cx="0" cy="0" r="1" gradientUnits="userSpaceOnUse" gradientTransform="translate(103.561 15.6843) rotate(153.407) scale(33.9101 24.0301)">
			<stop stop-color="#0A8A7C" />
			<stop offset="1" stop-color="#029792" stop-opacity="0" />
		</radialGradient>
		<linearGradient id="paint8_linear_3380_5580" x1="105.467" y1="-2.78842" x2="110.403" y2="46.1532" gradientUnits="userSpaceOnUse">
			<stop stop-color="#119189" />
			<stop offset="1" stop-color="#03AA9C" />
		</linearGradient>
		<linearGradient id="paint9_linear_3380_5580" x1="118.919" y1="15.9397" x2="142.637" y2="41.3736" gradientUnits="userSpaceOnUse">
			<stop stop-color="#06A082" />
			<stop offset="1" stop-color="#00B17C" />
		</linearGradient>
	</defs>
</svg>
	