<svg viewBox="0 0 64 62.4" xmlns="http://www.w3.org/2000/svg"><path clip-rule="evenodd" d="m32 0a32 32 0 0 0 -10.1 62.4c1.6.3 2.2-.7 2.2-1.5v-5.4c-8.9 1.9-10.8-4.3-10.8-4.3-1.5-3.7-3.6-4.7-3.6-4.7-2.9-2 .2-1.9.2-1.9 3.2.2 4.9 3.3 4.9 3.3 2.9 4.9 7.5 3.5 9.3 2.7a7 7 0 0 1 2-4.3c-7.1-.8-14.6-3.6-14.6-15.8 0-3.5 1.2-6.3 3.3-8.6a12 12 0 0 1 .3-8.5s2.7-.9 8.8 3.3a30.9 30.9 0 0 1 16 0c6.1-4.1 8.8-3.3 8.8-3.3a12 12 0 0 1 .3 8.5c2.1 2.2 3.3 5.1 3.3 8.6 0 12.3-7.5 15-14.6 15.8 1.1 1 2.2 2.9 2.2 5.9v8.8c0 .9.6 1.9 2.2 1.5a32.4 32.4 0 0 0 21.9-30.5 32 32 0 0 0 -32-32z" fill="#000" fill-rule="evenodd"/></svg>
