<svg viewBox="0 0 111 151" xmlns="http://www.w3.org/2000/svg" xmlns:xlink="http://www.w3.org/1999/xlink"><defs><linearGradient id="a" x1="-3.5%" x2="100.8%" y1="17%" y2="92.9%"><stop offset="0" stop-color="#fff" stop-opacity=".1"/><stop offset="1" stop-color="#fff" stop-opacity="0"/></linearGradient><path id="b" d="m95.8 33.6a3.4 3.4 0 0 0 -5.8-1.9l-17.7 17.9-14-26.6a3.3 3.3 0 0 0 -6 0l-7.7 14.4-19.2-35.4c-1.5-3-6-2.2-6.4 1l-18.5 118.2 49.5 27.7c3.1 1.7 7 1.7 10 0l50-27.7z"/><mask id="c" fill="#fff"><use fill="#fff" fill-rule="evenodd" xlink:href="#b"/></mask></defs><g fill="none" fill-rule="evenodd" transform="translate(.2)"><use fill="url(#a)" fill-rule="nonzero" xlink:href="#b"/><g fill-rule="nonzero" mask="url(#c)"><path d="m.5 121.2 18.6-118.2c.5-3.2 4.8-4 6.4-1l19.1 35.5 7.7-14.4a3.4 3.4 0 0 1 6 0l51.7 98h-109.5z" fill="#ffa000"/><path d="m64.5 75.2-20-37.6-44 83.6z" fill="#f57c00"/><path d="m110 121.2-14.2-87.6a3.4 3.4 0 0 0 -5.8-1.9l-89.5 89.5 49.5 27.7c3.1 1.7 7 1.7 10 0z" fill="#ffca28"/><path d="m95.8 33.6a3.4 3.4 0 0 0 -5.8-1.9l-17.7 17.9-14-26.6a3.3 3.3 0 0 0 -6 0l-7.7 14.4-19.2-35.4c-1.5-3-6-2.2-6.4 1l-18.5 118.2.5.3 71.2-71 17.8-17.9a3.5 3.5 0 0 1 5.8 1.9l14 86.7.2-.1-14.2-87.6zm-95.1 87.4 18.3-117.1c.5-3.3 4.8-4 6.4-1.1l19.1 35.6 7.7-14.5a3.4 3.4 0 0 1 6 0l13.8 26.1z" fill="#fff" fill-opacity=".2"/><path d="m60 148a10.4 10.4 0 0 1 -10 0l-49.4-27.6-.1.8 49.5 27.7c3.1 1.7 7 1.7 10 0l50-27.7v-.8z" fill="#a52714" opacity=".2"/></g><path d="m-26.9-6.7h164.3v163.7h-164.3z" mask="url(#c)"/><path d="m95.8 33.6a3.4 3.4 0 0 0 -5.8-1.9l-17.7 17.9-14-26.6a3.3 3.3 0 0 0 -6 0l-7.7 14.4-19.2-35.4c-1.5-3-6-2.2-6.4 1l-18.5 118.2 49.5 27.7c3.1 1.7 7 1.7 10 0l50-27.7z" fill="url(#a)" fill-rule="nonzero" mask="url(#c)"/></g></svg>