<svg xmlns="http://www.w3.org/2000/svg" viewBox="0 0 97.8 78.6">
  <path fill="#ea4335" d="M62.2 21.7h3.1l8.6-8.4.4-3.6A38.2 38.2 0 0 0 12 28.3c.9-.7 2.9-.2 2.9-.2l17-2.8s.9-1.5 1.3-1.4a21.2 21.2 0 0 1 29-2.2z"/>
  <path fill="#4285f4" d="M85.8 28.3A38.3 38.3 0 0 0 74.3 9.7l-12 12a21.2 21.2 0 0 1 7.9 16.5v2.2a10.6 10.6 0 1 1 0 21.2H48.9l-2.1 2.2v12.7l2 2.1h21.3a27.6 27.6 0 0 0 15.7-50.3z"/>
  <path fill="#34a853" d="M27.6 78.6H49v-17H27.6a10.5 10.5 0 0 1-4.4-1l-3 1-8.5 8.5-.8 2.9a27.5 27.5 0 0 0 16.7 5.6z"/>
  <path fill="#fbbc04" d="M27.6 23.4A27.6 27.6 0 0 0 11 73l12.4-12.3a10.6 10.6 0 1 1 14-14l12.3-12.4a27.6 27.6 0 0 0-22-11z"/>
</svg>
