<svg xmlns="http://www.w3.org/2000/svg" viewBox="0 0 72 80">
  <path fill="#000" fill-rule="evenodd" d="M64.8 0c4 0 7.2 3.2 7.2 7.2v65.6c0 4-3.2 7.2-7.2 7.2H7.2c-4 0-7.2-3.2-7.2-7.2V7.2C0 3.2 3.2 0 7.2 0Zm0 4H7.2A3.2 3.2 0 0 0 4 7.2v65.6C4 74.6 5.4 76 7.2 76h57.6c1.8 0 3.2-1.4 3.2-3.2V7.2C68 5.4 66.6 4 64.8 4ZM19 52l9 8-9 8V52Zm8-40v22.7c4-1.3 9.6-2.7 15-2.7 5 0 8 2 9.5 3.6 3.3 3.3 3.5 7.5 3.5 8.3V68h-8V44.1c0-1.9-1-4.1-5-4.1-7.8 0-16.4 3.7-17.3 4.1L19 46.7V12h8Zm28 0c-.5 4.5-2.4 8.9-6 13h-8a32 32 0 0 0 6-13Z"/>
</svg>
