<svg viewBox="0 0 40 40" xmlns="http://www.w3.org/2000/svg" xmlns:xlink="http://www.w3.org/1999/xlink"><radialGradient id="a" cy="0%" gradientTransform="matrix(0 .9989 -1.152 0 .5 -.5)" r="100.1%"><stop offset="0" stop-color="#20c6b7"/><stop offset="1" stop-color="#4d9abf"/></radialGradient><path d="m28.6 14.1.7-4.8 3.6 3.6-3.7 1.6h-.2a1.7 1.7 0 0 0 -.5-.4zm5.2-.3 4 4c.7.7 1.1 1.1 1.3 1.6v.2l-9.2-4h-.1zm5.2 7a7 7 0 0 1 -1.3 1.5l-4.3 4.3-5.7-1.1-.1-.1a1.7 1.7 0 0 0 -.7-1.2v-.2l1-6.5.1-.2a1.7 1.7 0 0 0 1.2-.6h.1l9.7 4zm-6.7 6.9-7.1 7.1 1.2-7.5v-.1a1.9 1.9 0 0 0 .8-.5zm-8.7 8.7-.8.8-9-13v-.2l.1-.1.1-.1h.1l10 2v.1a1.8 1.8 0 0 0 1 1.2.2.2 0 0 0 0 .1l-1.5 9zm-1.6 1.6c-.6.6-1 1-1.4 1a2 2 0 0 1 -1.2 0c-.5 0-.9-.5-1.7-1.3l-9-9 2.4-3.6h.1a2.4 2.4 0 0 0 1.6-.1h.1l9 13zm-14.1-10-2.1-2.1 4-1.7h.1a3 3 0 0 0 .2.2l-2.1 3.6zm-3-3-2.6-2.6-1-1 8 1.6v.1l-4.5 1.9zm-4-5a2 2 0 0 1 0-.5c.2-.5.6-.9 1.4-1.7l3.3-3.3a2175.5 2175.5 0 0 0 4.6 6.7s.1 0 0 0l-.3.6h-.1l-9-1.8zm5.6-6.4 4.5-4.6 3.3 1.4 2.3 1c.1 0 0 0 0 .1a2 2 0 0 0 .6 1.8v.1l-4.6 7.1h-.1a2.3 2.3 0 0 0 -.6 0 3 3 0 0 0 -.5 0l-4.9-7zm5.5-5.6 5.8-5.8c.7-.7 1.2-1.2 1.6-1.3a2 2 0 0 1 1.2 0c.5.2.9.6 1.7 1.4l1.2 1.2-4.1 6.4c0 .1-.1.1-.1 0a2.1 2.1 0 0 0 -2 .5l-5.5-2.4zm12.5-3.7 3.8 3.8-.9 5.7v.1a1.8 1.8 0 0 0 -.6.3.1.1 0 0 1 -.1 0l-5.9-2.2-.1-.1a2.2 2.2 0 0 0 -.3-1l4-6.4zm-4 8.6 5.5 2.3h.1a.1.1 0 0 1 0 .1v.5h-.1l-12.1 5.2h-.1l4.5-7h.5a2 2 0 0 0 1.7-1zm-6.2 9.2 12.2-5.1.2.1.1.1-1 6.5-.1.1a1.7 1.7 0 0 0 -1.4.9h-.1l-9.8-2-.2-.5z" fill="url(#a)"/></svg>