<svg xmlns="http://www.w3.org/2000/svg" xml:space="preserve" fill="#46E3B7" viewBox="0 0 234.3 234.3">
	<path d="M145 31.7h-2v22.5h22.6V31.7h-2zm-59.8 0a52.96 52.96 0 0 0-37.8 15.7 53.23 53.23 0 0 0-15.7 37.8v80.4h22.6V84.9c.4-8.1 3.8-15.7 9.5-21.3 5.8-5.7 13.4-9 21.5-9.3h43.2V31.7H85.2zm96.9 74.2h-2v22.6h22.6v-22.6h-2zm0-37.1h-2v22.6h22.6V68.8h-2zm18.6-37.1h-20.6v22.5h22.6V31.7zM182.1 143h-2v22.6h22.6V143h-2zm0 37.1h-2v22.6h22.6v-22.6h-2zm-37.1 0h-2v22.6h22.6v-22.6h-2zm-37.1 0h-2v22.6h22.6v-22.6h-2zm-37.1 0h-2v22.6h22.6v-22.6h-2zm-37.1 0h-2v22.6h22.5v-22.6h-2z" class="st0"/>
</svg>
