<?xml version="1.0" encoding="UTF-8" standalone="no"?>
<!DOCTYPE svg PUBLIC "-//W3C//DTD SVG 1.1//EN" "http://www.w3.org/Graphics/SVG/1.1/DTD/svg11.dtd">
<svg width="100%" height="100%" viewBox="0 0 512 168" version="1.1" xmlns="http://www.w3.org/2000/svg" xmlns:xlink="http://www.w3.org/1999/xlink" xml:space="preserve" xmlns:serif="http://www.serif.com/" style="fill-rule:evenodd;clip-rule:evenodd;stroke-linejoin:round;stroke-miterlimit:2;">
    <path d="M254,52L238,52C228.125,52 220,60.125 220,70L220,98C220,107.875 228.125,116 238,116L254,116C257.606,116.005 261.13,114.921 264.11,112.89C264.539,114.684 266.156,115.959 268,115.959C270.179,115.959 271.978,114.179 272,112L272,70C272,60.125 263.875,52 254,52ZM264,98C264,103.486 259.486,108 254,108L238,108C232.514,108 228,103.486 228,98L228,70C228,64.514 232.514,60 238,60L254,60C259.486,60 264,64.514 264,70L264,98Z" style="fill:white;fill-rule:nonzero;"/>
    <path d="M408,52L392,52C382.125,52 374,60.125 374,70L374,98C374,107.875 382.125,116 392,116L408,116C417.875,116 426,107.875 426,98L426,70C426,60.125 417.875,52 408,52ZM418,98C418,103.486 413.486,108 408,108L392,108C386.514,108 382,103.486 382,98L382,70C382,64.514 386.514,60 392,60L408,60C413.486,60 418,64.514 418,70L418,98Z" style="fill:white;fill-rule:nonzero;"/>
    <path d="M320,52L304,52C294.125,52 286,60.125 286,70L286,136C286,138.194 287.806,140 290,140C292.194,140 294,138.194 294,136L294,113C296.961,114.971 300.443,116.015 304,116L320,116C329.875,116 338,107.875 338,98L338,70C338,60.125 329.875,52 320,52ZM330,98C330,103.486 325.486,108 320,108L304,108C298.514,108 294,103.486 294,98L294,70C294,64.514 298.514,60 304,60L320,60C325.486,60 330,64.514 330,70L330,98Z" style="fill:white;fill-rule:nonzero;"/>
    <path d="M188,52L176,52C170.564,52.003 165.412,54.469 162,58.7C158.588,54.469 153.436,52.003 148,52L136,52C132.394,51.995 128.87,53.079 125.89,55.11C125.461,53.316 123.844,52.041 122,52.041C119.821,52.041 118.022,53.821 118,56L118,112C118,114.194 119.806,116 122,116C124.194,116 126,114.194 126,112L126,70C126,64.514 130.514,60 136,60L148,60C153.486,60 158,64.514 158,70L158,112C158,114.194 159.806,116 162,116C164.194,116 166,114.194 166,112L166,70C166,64.514 170.514,60 176,60L188,60C193.486,60 198,64.514 198,70L198,112C198,114.194 199.806,116 202,116C204.194,116 206,114.194 206,112L206,70C206,60.125 197.875,52 188,52Z" style="fill:white;fill-rule:nonzero;"/>
    <path d="M356,52C353.806,52 352,53.806 352,56L352,112C352,114.194 353.806,116 356,116C358.194,116 360,114.194 360,112L360,56C360,53.806 358.194,52 356,52Z" style="fill:white;fill-rule:nonzero;"/>
    <path d="M456,44L448,44L448,32C448,29.806 446.194,28 444,28C441.806,28 440,29.806 440,32L440,112C440,114.194 441.806,116 444,116C446.194,116 448,114.194 448,112L448,52L456,52C458.194,52 460,50.194 460,48C460,45.806 458.194,44 456,44Z" style="fill:white;fill-rule:nonzero;"/>
    <path d="M92,80L64,80C61.806,80 60,78.194 60,76L60,70C60,64.514 64.514,60 70,60L98,60C100.194,60 102,58.194 102,56C102,53.806 100.194,52 98,52L70,52C60.125,52 52,60.125 52,70L52,76C52,82.583 57.417,88 64,88L92,88C94.194,88 96,89.806 96,92L96,98C96,103.486 91.486,108 86,108L58,108C55.806,108 54,109.806 54,112C54,114.194 55.806,116 58,116L86,116C95.875,116 104,107.875 104,98L104,92C104,85.417 98.583,80 92,80Z" style="fill:white;fill-rule:nonzero;"/>
</svg>
